<svg width="224" height="27" viewBox="0 0 224 27" fill="none" xmlns="http://www.w3.org/2000/svg">
<path fill-rule="evenodd" clip-rule="evenodd" d="M3.12616 19.3995V13.2609H6.76413C7.67235 13.2609 8.69568 13.2609 9.37748 13.8397C10.1731 14.4185 10.6272 15.4614 10.6272 16.3882C10.6272 17.3151 10.287 18.1258 9.60517 18.7046C8.92337 19.2834 7.90003 19.3995 6.99055 19.3995H3.12616ZM3.12616 11.7553V6.31157H6.76413C7.55977 6.31157 8.2403 6.31159 8.92337 6.65963C9.71901 7.12241 10.1731 7.93323 10.1731 8.86007C10.1731 9.67089 9.71901 10.5964 9.14979 11.0605C8.35415 11.7553 7.21823 11.7553 6.1949 11.7553H3.12616ZM7.10439 21.0211C8.58184 21.0211 9.83159 20.9051 10.9688 19.9783C12.1047 19.0527 12.56 17.8939 12.56 16.5042C12.56 14.4185 11.1965 12.7969 9.26364 12.3341C10.9688 11.8713 12.1047 10.4817 12.1047 8.74404C12.1047 7.35444 11.4229 6.19556 10.4008 5.50076C9.26363 4.80596 8.35415 4.68994 7.10439 4.68994H1.19461V21.0211H7.10439Z" fill="#100E0D"/>
<path fill-rule="evenodd" clip-rule="evenodd" d="M16.3106 14.8824C16.3106 13.8396 16.4245 12.682 16.8785 11.8712C17.4465 10.8284 18.4699 10.1335 19.607 10.1335C20.6291 10.1335 21.6525 10.7123 22.2204 11.5232C22.7884 12.5661 22.9022 13.7236 22.9022 14.8824C22.9022 15.924 22.7884 16.9669 22.3343 18.0097C21.7663 19.0526 20.8568 19.7474 19.607 19.7474C18.4699 19.7474 17.4465 19.1673 16.9925 18.2418C16.4245 17.1989 16.3106 15.924 16.3106 14.8824ZM14.2652 14.8824C14.2652 18.0097 15.8566 21.2531 19.3794 21.2531C23.016 21.2531 24.9476 18.2418 24.9476 14.8824C24.9476 11.7552 23.2437 8.62793 19.7209 8.62793C16.1968 8.62793 14.2652 11.5232 14.2652 14.8824Z" fill="#100E0D"/>
<path fill-rule="evenodd" clip-rule="evenodd" d="M28.6994 14.8824C28.6994 13.8396 28.8133 12.682 29.2674 11.8712C29.7215 10.8284 30.8588 10.1335 31.9947 10.1335C33.018 10.1335 33.9274 10.7123 34.4954 11.5232C35.1771 12.5661 35.2911 13.7236 35.2911 14.8824C35.2911 15.924 35.1771 16.9669 34.7231 18.0097C34.1539 19.0526 33.1318 19.7474 31.9947 19.7474C30.8588 19.7474 29.8353 19.1673 29.3813 18.2418C28.8133 17.1989 28.6994 15.924 28.6994 14.8824ZM26.6527 14.8824C26.6527 18.0097 28.2441 21.2531 31.7682 21.2531C35.4049 21.2531 37.2239 18.2418 37.2239 14.8824C37.2239 11.7552 35.5187 8.62793 32.1085 8.62793C28.5856 8.62793 26.6527 11.5232 26.6527 14.8824Z" fill="#100E0D"/>
<path fill-rule="evenodd" clip-rule="evenodd" d="M47.1106 10.0175L40.6329 19.5153H47.1106V21.0209H38.3598V19.5153L44.7249 10.3655H38.9277V8.97461H47.1106V10.0175Z" fill="#100E0D"/>
<path d="M57.4539 26.3485H58.9314V1.21436H57.4539V26.3485Z" fill="#100E0D"/>
<path fill-rule="evenodd" clip-rule="evenodd" d="M76.6618 14.6505H71.7742L74.1611 6.89038L76.6618 14.6505ZM75.4108 4.68994H73.2516L68.0236 21.0211H69.7288L71.2062 16.2721H77.116L78.7072 21.0211H80.6388L75.4108 4.68994Z" fill="#100E0D"/>
<path fill-rule="evenodd" clip-rule="evenodd" d="M94.1648 13.7236C94.1648 11.8712 95.5284 10.0175 97.5738 10.0175C99.6205 10.0175 100.87 11.7552 100.756 13.7236H94.1648ZM100.87 17.431C100.302 18.8206 99.1652 19.7474 97.6877 19.7474C96.4379 19.7474 95.0731 18.9366 94.5051 17.7777C94.051 16.9669 94.051 16.0401 94.051 15.1145H102.688C102.802 11.7552 101.212 8.62793 97.5738 8.62793C94.051 8.62793 92.1182 11.6392 92.1182 14.9985C92.1182 18.3564 93.9372 21.2531 97.46 21.2531C99.7331 21.2531 101.78 19.8634 102.575 17.6617L100.87 17.431Z" fill="#100E0D"/>
<path fill-rule="evenodd" clip-rule="evenodd" d="M107.008 10.9444H107.121C107.689 9.67077 109.167 8.62793 110.758 8.62793C112.236 8.62793 113.373 9.20671 114.168 10.4816C114.736 11.5232 114.623 13.1448 114.623 14.3036V21.021H112.804V13.4929C112.804 12.7968 112.917 11.9859 112.577 11.2924C112.122 10.5963 111.326 10.2496 110.531 10.2496C109.508 10.2496 108.713 10.7123 108.03 11.4071C107.348 12.334 107.121 13.4929 107.121 14.6504V21.021H105.303V8.97468H107.008V10.9444Z" fill="#100E0D"/>
<path fill-rule="evenodd" clip-rule="evenodd" d="M215.89 10.9444C216.457 9.67077 217.935 8.62793 219.526 8.62793C221.004 8.62793 222.139 9.20671 222.937 10.4816C223.505 11.5232 223.505 13.1448 223.505 14.3036V21.021H221.685V13.4929C221.685 12.7968 221.685 11.9859 221.346 11.2924C220.891 10.5963 220.094 10.2496 219.298 10.2496C218.389 10.2496 217.481 10.7123 216.913 11.4071C216.118 12.334 215.89 13.4929 215.89 14.6504V21.021H214.071V8.97468H215.89V10.9444Z" fill="#100E0D"/>
<path d="M125.079 26.3485H126.556V1.21436H125.079V26.3485Z" fill="#100E0D"/>
<path fill-rule="evenodd" clip-rule="evenodd" d="M147.128 21.0211V13.1449H139.741V21.0211H137.921V4.68994H139.741V11.6393H147.128V4.68994H149.059V21.0211H147.128Z" fill="#100E0D"/>
<path fill-rule="evenodd" clip-rule="evenodd" d="M159.63 15.6933C159.63 17.7777 158.152 19.7474 155.993 19.7474C154.514 19.7474 153.379 19.1673 153.379 17.6617C153.379 15.2305 155.993 14.8824 158.152 14.8824H159.63V15.6933ZM158.152 13.4929C156.675 13.4929 154.971 13.6075 153.719 14.1876C152.469 14.7664 151.56 16.1561 151.56 17.5457C151.56 19.9782 153.379 21.2531 155.652 21.2531C157.47 21.2531 158.834 20.4422 159.63 18.7045L159.857 21.021H161.676C161.447 20.2101 161.335 19.2833 161.335 18.4725V13.7236C161.335 12.45 161.335 10.8284 160.426 9.78551C159.517 8.74393 158.152 8.62793 156.901 8.62793C154.743 8.62793 152.243 9.43874 151.901 11.9859L153.493 12.218C153.833 10.5963 155.31 10.1335 156.675 10.1335C158.721 10.1335 159.63 10.8284 159.63 13.0287V13.4929H158.152Z" fill="#100E0D"/>
<path fill-rule="evenodd" clip-rule="evenodd" d="M166.222 8.97468V11.0604C166.79 9.78551 168.154 8.62793 169.746 8.62793C171.45 8.62793 172.814 9.90152 173.041 11.2924C173.723 9.78551 175.086 8.62793 176.906 8.62793C178.156 8.62793 179.293 9.32273 179.86 10.3656C180.428 11.4072 180.428 12.682 180.428 13.8396V21.021H178.611V13.8396C178.611 13.0288 178.611 12.1019 178.269 11.4071C177.929 10.5963 177.133 10.1335 176.337 10.1335C175.428 10.1335 174.519 10.7123 174.065 11.5232C173.383 12.4499 173.383 13.3768 173.383 14.5345V21.021H171.564V13.3768C171.564 12.682 171.564 11.8712 171.223 11.2924C170.767 10.5963 169.973 10.1335 169.177 10.1335C168.381 10.1335 167.586 10.7123 167.017 11.2924C166.45 12.102 166.336 13.1448 166.336 14.0717V21.021H164.517V8.97468H166.222Z" fill="#100E0D"/>
<path fill-rule="evenodd" clip-rule="evenodd" d="M183.725 8.97479H185.544V21.0198H183.725V8.97479ZM183.611 4.68994H185.656V6.77435H183.611V4.68994Z" fill="#100E0D"/>
<path d="M189.294 21.0211H191V4.68994H189.294V21.0211Z" fill="#100E0D"/>
<path d="M82.4579 21.0211H84.1631V4.68994H82.4579V21.0211Z" fill="#100E0D"/>
<path d="M87.9134 21.0211H89.6186V4.68994H87.9134V21.0211Z" fill="#100E0D"/>
<path fill-rule="evenodd" clip-rule="evenodd" d="M200.204 21.0207L198.5 21.2528C195.886 21.2528 195.091 19.6311 195.091 17.3147V10.3653H193.045V8.8597H195.091V5.84844L196.909 5.73242V8.8597H199.523V10.3653H196.909V17.5455C196.909 18.9363 197.363 19.7472 198.841 19.7472L200.204 19.6311V21.0207Z" fill="#100E0D"/>
<path fill-rule="evenodd" clip-rule="evenodd" d="M203.161 14.8824C203.161 13.8396 203.273 12.682 203.728 11.8712C204.182 10.8284 205.206 10.1335 206.341 10.1335C207.479 10.1335 208.389 10.7123 208.957 11.5232C209.639 12.5661 209.752 13.7236 209.752 14.8824C209.752 15.924 209.639 16.9669 209.185 18.0097C208.615 19.0526 207.593 19.7474 206.341 19.7474C205.32 19.7474 204.296 19.1673 203.842 18.2418C203.273 17.1989 203.161 15.924 203.161 14.8824ZM201.113 14.8824C201.113 18.0097 202.706 21.2531 206.228 21.2531C209.866 21.2531 211.684 18.2418 211.684 14.8824C211.684 11.7552 209.98 8.62793 206.569 8.62793C202.933 8.62793 201.113 11.5232 201.113 14.8824Z" fill="#100E0D"/>
</svg>
